<svg width="676" height="501" viewBox="0 0 676 501" fill="none" xmlns="http://www.w3.org/2000/svg">
<path d="M391.616 444.879C391.616 444.879 467.172 244.051 517.017 268.168C566.862 292.289 438.693 390.662 418.417 449.877L391.616 444.879Z" fill="#E1E1E1"/>
<path d="M417.082 417.735C417.082 417.735 549.658 228.721 606.096 271.417C662.533 314.114 485.636 375.764 449.007 432.174L417.082 417.735Z" fill="#EAEAEA"/>
<path d="M434.874 425.978C459.512 386.527 498.674 353.116 527.188 332.034C558.102 309.182 583.488 295.498 583.742 295.365L582.954 293.665C582.7 293.803 557.199 307.539 526.187 330.468C497.548 351.642 458.203 385.218 433.409 424.919L434.874 425.978Z" fill="#F3F3F3"/>
<path d="M637.744 394.646C613.676 403.224 621.755 442.907 592.938 438.687C568.563 435.103 566.333 432.976 558.841 441.286C556.273 444.135 554.14 447.398 552.413 450.905C550.344 455.107 546.168 461.433 539.095 463.623C495.86 477.017 428.655 413.795 470.782 369.848C473.822 366.674 478.549 365.045 483.811 363.527C512.343 355.315 522.808 368.615 542.011 329.168C561.222 289.712 597.487 338.939 616.765 334.839C636.039 330.744 652.567 322.487 669.931 342.94C687.304 363.416 661.816 386.086 637.744 394.646Z" fill="#E1E1E1"/>
<g opacity="0.5">
<g opacity="0.5">
<g opacity="0.5">
<path opacity="0.5" d="M489.887 419.27L488.814 417.895C489.375 417.387 546.591 366.75 674.049 348.842L674.267 350.623C547.286 368.463 490.448 418.763 489.887 419.27Z" fill="#F3F3F3"/>
</g>
</g>
<g opacity="0.5">
<g opacity="0.5">
<path opacity="0.5" d="M564.12 357.006C545.647 342.615 541.396 329.991 541.223 329.462L542.799 328.87C542.839 328.994 547.099 341.529 565.099 355.555L564.12 357.006Z" fill="#68A1BF"/>
</g>
</g>
<g opacity="0.5">
<g opacity="0.5">
<path opacity="0.5" d="M568.95 375.928C563.324 367.489 562.487 354.487 566.533 338.337C569.56 326.243 574.305 316.482 574.354 316.388L575.827 317.225C575.64 317.603 557.368 355.479 570.308 374.887L568.95 375.928Z" fill="#68A1BF"/>
</g>
</g>
</g>
<path d="M541.352 256.047C544.192 251.623 546.743 251.578 548.853 253.145C550.963 254.712 551.826 257.298 548.986 261.723C543.814 269.784 537.502 270.839 537.502 270.839C537.502 270.839 536.109 264.224 541.352 256.047Z" fill="#EAEAEA"/>
<path d="M259.169 346.608C259.169 346.608 261.604 252.762 237.928 253.007C214.252 253.252 249.238 316.282 247.725 343.577L259.169 346.608Z" fill="#E1E1E1"/>
<path d="M258.831 354.015C258.831 354.015 228.736 227.581 191.612 236.377C154.489 245.173 232.257 316.989 239.748 354.05L258.831 354.015Z" fill="#EAEAEA"/>
<path d="M248.157 354.14C243.416 328.443 230.103 302.496 219.767 285.256C208.563 266.566 198.352 253.799 198.249 253.675L198.984 252.989C199.086 253.118 209.337 265.938 220.581 284.691C230.962 302.011 244.338 328.082 249.109 353.939L248.157 354.14Z" fill="#F3F3F3"/>
<path d="M192.28 378.533C177.515 376.895 188.96 381.542 171.226 380.46C167.464 388.152 146.512 380.037 139.969 368.526C131.627 353.859 131.632 357.229 106.358 359.744C88.2276 361.538 87.4531 344.405 80.8251 331.461C80.7049 331.225 80.5803 330.989 80.4602 330.753C77.8873 325.95 74.4287 321.792 68.8557 319.513C62.9444 317.096 56.9753 313.678 51.8296 309.614C51.4023 309.28 50.9795 308.937 50.5655 308.59C40.4033 300.133 33.9623 289.174 38.694 278.869C38.8053 278.624 38.921 278.379 39.0456 278.139C39.9136 276.443 41.0977 274.76 42.6155 273.118C58.4798 255.994 72.5948 263.868 89.2558 268.235C98.4655 270.643 112.781 259.061 126.335 254.164C126.526 254.093 126.722 254.026 126.918 253.96C137.668 250.225 147.883 250.902 154.627 266.352C154.627 266.356 154.627 266.356 154.627 266.356C154.765 266.668 154.903 266.98 155.037 267.287C170.144 301.334 179.786 290.442 204.156 298.695C208.688 300.235 212.752 301.851 215.293 304.744C238.983 331.696 219.135 364.248 192.28 378.533Z" fill="#EAEAEA"/>
<path d="M196.892 347.04L197.875 345.887C197.404 345.42 149.312 298.926 38.8186 278.094L38.5693 279.639C148.644 300.391 196.42 346.577 196.892 347.04Z" fill="#F3F3F3"/>
<path d="M134.369 289.712C150.986 277.92 155.139 267.09 155.308 266.632L153.955 266.049C153.915 266.156 149.757 276.91 133.568 288.399L134.369 289.712Z" fill="#F3F3F3"/>
<path d="M129.491 306.013C134.694 298.886 135.883 287.584 132.927 273.336C130.715 262.666 126.922 253.964 126.887 253.879L125.573 254.547C125.72 254.885 140.316 288.653 128.351 305.047L129.491 306.013Z" fill="#F3F3F3"/>
<path d="M131.725 218.675C128.64 213.645 129.21 211.094 131.04 209.794C132.869 208.495 135.273 208.935 138.357 213.965C143.975 223.126 143.374 229.91 143.374 229.91C143.374 229.91 137.427 227.969 131.725 218.675Z" fill="#E1E1E1"/>
<path d="M125.996 236.662C120.508 235.487 119.222 233.257 119.649 230.943C120.076 228.628 122.057 227.097 127.545 228.276C137.547 230.417 141.602 235.652 141.602 235.652C141.602 235.652 136.145 238.839 125.996 236.662Z" fill="#E1E1E1"/>
<path d="M341.589 501C520.302 501 665.177 482.219 665.177 459.051C665.177 435.884 520.302 417.103 341.589 417.103C162.876 417.103 18 435.884 18 459.051C18 482.219 162.876 501 341.589 501Z" fill="#EAEAEA"/>
<path d="M192.138 140.101C192.138 140.101 408.772 223.473 475.941 279.808C556.665 347.507 339.719 341.792 336.016 363.87C332.308 385.949 558.481 426.286 558.481 426.286C548.043 459.052 395.511 474.76 279.868 451.208C235.27 442.123 176.127 414.802 180.377 366.114C187.326 286.583 333.884 311.581 329.25 282.955C324.616 254.329 181.036 157.964 181.036 157.964L192.138 140.101Z" fill="#00A3FE"/>
<path d="M216.602 130.299C199.812 118.156 138.18 104.865 137.254 112.112C136.328 119.358 168.128 187.547 176.5 185.433C184.878 183.318 189.703 150.473 189.703 150.473C189.703 150.473 225.673 136.856 216.602 130.299Z" fill="#00A3FE"/>
<path d="M534.244 374.602C535.25 375.83 536.736 378.746 537.72 379.997C538.147 380.54 539.469 382.472 539.033 383.006C538.655 383.469 536.937 382.48 536.171 381.897C536.616 386.589 535.343 393.644 533.758 383.887C533.754 383.887 533.749 383.887 533.745 383.892C533.821 384.893 534.252 390.475 532.984 390.057C531.867 389.692 531.408 385.708 531.266 384.061C531.252 384.061 531.239 384.061 531.221 384.061C531.235 385.748 531.168 389.825 530.206 389.104C529.004 388.196 528.403 383.847 528.403 383.847C528.403 383.847 529.058 389.424 527.549 388.561C526.699 388.076 526.632 384.84 526.614 382.828C526.61 382.405 526.61 382.035 526.605 381.759C526.601 381.528 526.619 381.323 526.659 381.136C526.828 377.767 527.455 375.634 527.455 375.634C527.455 375.634 527.78 372.986 530.473 372.737C532.196 372.572 533.807 374.068 534.244 374.602Z" fill="#FF7955"/>
<path d="M537.849 375.813C547.321 369.114 538.174 346.069 542.109 331.754C543.022 328.438 543.413 327.187 544.201 325.34C544.833 323.853 543.124 320.96 540.778 319.767C538.575 318.645 533.287 319.384 532.868 320.136C526.49 331.594 523.432 350.262 526.61 374.273C526.61 374.268 533.781 378.688 537.849 375.813Z" fill="#F3F3F3"/>
<path d="M552.948 460.396C552.948 460.396 552.868 463.85 550.695 464.825C548.523 465.799 542.234 466.681 544.584 468.902C545.933 470.175 552.289 469.351 554.087 469.351C555.881 469.351 557.568 470.193 558.904 468.902C560.372 467.477 558.904 460.396 558.904 460.396C558.904 460.396 557.354 461.263 555.961 461.223C553.949 461.166 552.948 460.396 552.948 460.396Z" fill="#131F2D"/>
<path d="M534.212 356.116C534.212 356.116 533.781 371.708 538.401 401.625C541.739 423.223 545.679 444.981 547.611 455.414C548.301 459.145 551.216 461.873 554.67 462.025L556.526 462.105C560.261 462.265 563.292 458.811 563.021 454.702L558.334 384.119L557.176 360.888L534.212 356.116Z" fill="#364154"/>
<path d="M580.043 459.897C580.043 459.897 581.289 463.08 579.686 464.931C578.08 466.783 572.68 470.371 575.676 471.354C577.394 471.92 582.874 468.35 584.507 467.553C586.145 466.756 588.001 466.779 588.723 465.007C589.515 463.062 585.469 457.257 585.469 457.257C585.469 457.257 584.387 458.735 583.105 459.318C581.249 460.155 580.043 459.897 580.043 459.897Z" fill="#131F2D"/>
<path d="M553.406 357.567C553.406 357.567 554.163 373.146 561.045 402.551C566.012 423.779 571.594 445.123 574.314 455.348C575.289 459.007 578.4 461.468 581.854 461.312L583.71 461.228C587.445 461.059 590.205 457.346 589.622 453.278L579.58 383.349L576.66 360.296L553.406 357.567Z" fill="#364154"/>
<path d="M580.016 373.209C579.971 375.092 569.404 375.839 556.335 375.399C543.266 374.958 532.824 373.013 532.868 371.134C532.913 369.252 543.431 368.148 556.5 368.588C569.569 369.02 580.06 371.326 580.016 373.209Z" fill="#131F2D"/>
<path d="M576.815 319.945C576.815 319.945 574.505 310.085 557.453 309.983C532.864 309.841 535.138 334.162 532.864 371.13C532.864 371.13 557.074 367.907 580.011 373.204C580.016 373.209 582.157 335.012 576.815 319.945Z" fill="#F3F3F3"/>
<path d="M583.11 318.529L571.973 325.162C571.973 325.162 547.588 327.547 541.116 326.399C534.644 325.251 532.868 320.132 532.868 320.132C532.868 320.132 539.763 312.453 551.479 310.401C552.578 310.205 553.722 310.063 554.906 309.983C556.896 309.845 558.886 309.872 560.831 310.112C575.685 311.91 583.11 318.529 583.11 318.529Z" fill="#F3F3F3"/>
<path d="M534.925 372.652C534.925 372.652 549.084 368.165 578.414 374.326L578.641 378.866L535.65 380.504L534.925 372.652Z" fill="#364154"/>
<path d="M584.227 373.36C583.203 361.208 575.872 328.785 574.901 327.045C574.118 325.643 575.52 322.567 577.732 321.098C579.807 319.722 582.491 317.964 583.114 318.53C591.878 326.484 598.471 356.583 596.094 372.692L584.227 373.36Z" fill="#F3F3F3"/>
<path d="M554.697 289.235C554.697 289.235 553.527 290.678 552.961 292.97C552.396 295.262 556.736 291.216 556.736 291.216L554.697 289.235Z" fill="#5C305D"/>
<path d="M562.99 310.415C561.227 312.756 558.058 312.427 555.578 311.247C553.584 310.299 553.869 310.317 554.145 309.974C554.822 309.12 555.378 308.915 555.414 307.931L555.463 306.645L555.467 306.484L555.529 304.806L555.641 301.913L555.93 294.301L558.133 301.953L558.507 303.257L559.794 307.731C560.217 309.168 562.976 310.41 562.99 310.415Z" fill="#FF7955"/>
<path d="M558.854 304.455C558.854 304.455 557.715 306.289 555.463 306.645L555.467 306.484L555.529 304.806C556.753 304.677 558.854 304.455 558.854 304.455Z" fill="#131F2D"/>
<path d="M563.536 299.981C565.426 295.953 564.35 291.464 561.134 289.956C557.917 288.447 553.779 290.491 551.889 294.519C550 298.548 551.076 303.037 554.292 304.545C557.508 306.053 561.647 304.01 563.536 299.981Z" fill="#FF7955"/>
<path d="M556.469 296.282C556.437 296.255 556.424 296.215 556.424 296.166C556.429 296.09 556.491 296.032 556.562 296.037C556.602 296.041 557.573 296.015 557.893 297.172C557.915 297.243 557.875 297.323 557.808 297.346C557.742 297.368 557.684 297.323 557.648 297.257C557.292 296.598 556.58 296.313 556.544 296.313C556.513 296.313 556.486 296.3 556.469 296.282Z" fill="#080435"/>
<path d="M553.375 294.608C553.348 294.595 553.331 294.559 553.331 294.519C553.331 294.448 553.375 294.377 553.433 294.359C553.469 294.35 554.265 294.016 554.621 294.96C554.644 295.018 554.621 295.102 554.568 295.142C554.515 295.187 554.461 295.16 554.43 295.111C554.083 294.63 553.469 294.604 553.442 294.613C553.415 294.622 553.393 294.617 553.375 294.608Z" fill="#080435"/>
<path d="M557.412 311.621C557.412 311.621 554.417 310.624 553.62 311.398C552.823 312.173 553.411 315.716 554.79 316.028C556.17 316.344 558.779 312.475 557.412 311.621Z" fill="#00A3FE"/>
<path d="M555.654 310.784C555.654 310.784 559.562 309.297 560.328 307.806C561.089 306.319 565.14 309.756 565.069 310.784C564.997 311.812 557.706 317.505 557.23 316.789C556.754 316.068 554.702 311.759 555.654 310.784Z" fill="#364154"/>
<path d="M555.654 310.784C555.654 310.784 555.071 309.222 555.352 308.376C555.352 308.376 555.539 307.633 554.942 307.682C554.346 307.735 551.105 310.17 550.82 310.913C550.535 311.656 550.486 315.146 551.537 315.404C552.587 315.663 555.111 311.915 555.409 311.541C555.703 311.171 555.654 310.784 555.654 310.784Z" fill="#364154"/>
<path d="M553.954 314.657C553.954 314.657 543.649 343.416 544.335 355.47C544.335 355.47 545.06 362.503 549.694 366.3C549.694 366.3 555.943 361.889 556.785 355.47C557.475 350.196 554.421 319.633 556.184 315.413L553.954 314.657Z" fill="#00A3FE"/>
<path d="M554.813 316.103C554.804 316.103 554.795 316.103 554.791 316.103C553.878 316.085 553.384 314.176 553.362 314.091L553.504 314.056C553.509 314.073 553.989 315.939 554.791 315.956C554.8 315.956 554.804 315.956 554.813 315.956C555.628 315.956 556.358 315.142 556.362 315.133L556.473 315.231C556.442 315.266 555.694 316.103 554.813 316.103Z" fill="#131F2D"/>
<path d="M562.18 294.043C562.18 294.043 559.745 295.614 556.691 294.159C556.691 294.159 556.402 293.825 557.078 293.754C557.755 293.678 558.93 293.113 558.872 292.712C558.819 292.311 555.111 294.355 552.89 292.948C552.89 292.948 549.752 291.11 552.56 290.059C554.301 289.409 555.485 283.774 563.319 287.428C564.463 287.963 566.796 289.414 566.831 291.751C566.831 291.751 569.907 293.282 568.687 297.555C566.853 303.983 560.804 303.44 560.804 303.44C560.804 303.44 564.396 299.082 562.714 298.988C560.555 298.873 560.119 297.288 561.396 296.607C562.674 295.93 563.871 293.869 562.18 294.043Z" fill="#131F2D"/>
<path d="M562.665 301.579C561.908 301.663 561.24 301.142 561.174 300.412C561.102 299.687 561.659 299.028 562.415 298.944C563.172 298.859 563.84 299.38 563.907 300.11C563.973 300.84 563.417 301.494 562.665 301.579Z" fill="#FF7955"/>
<path d="M569.173 293.313C569.11 293.313 569.052 293.273 569.03 293.211C568.616 291.866 567.187 291.524 567.174 291.519C567.094 291.501 567.045 291.421 567.063 291.341C567.081 291.261 567.161 291.212 567.241 291.23C567.308 291.243 568.848 291.613 569.315 293.122C569.337 293.202 569.297 293.282 569.217 293.308C569.204 293.308 569.19 293.313 569.173 293.313Z" fill="#131F2D"/>
<path d="M567.134 290.531C567.107 290.531 567.081 290.522 567.054 290.509C566.987 290.464 566.965 290.375 567.009 290.304C567.027 290.273 567.419 289.61 566.591 288.702C566.537 288.639 566.542 288.546 566.6 288.492C566.662 288.434 566.756 288.443 566.809 288.501C567.802 289.587 567.281 290.429 567.259 290.464C567.232 290.509 567.183 290.531 567.134 290.531Z" fill="#131F2D"/>
<path d="M590.379 376.178C593.655 375.97 596.22 374.378 596.108 372.621C595.997 370.865 593.251 369.609 589.976 369.817C586.701 370.024 584.136 371.617 584.247 373.374C584.359 375.13 587.104 376.386 590.379 376.178Z" fill="#131F2D"/>
<path d="M532.721 371.143C532.699 370.881 530.723 344.721 537.769 328.514L538.04 328.634C531.021 344.774 532.993 370.859 533.015 371.121L532.721 371.143Z" fill="#131F2D"/>
<path d="M580.301 347.672C578.445 339.508 574.594 333.708 574.559 333.65L574.803 333.485C574.843 333.543 578.721 339.392 580.59 347.605L580.301 347.672Z" fill="#131F2D"/>
<path d="M552.948 296.13C552.859 296.406 552.934 296.691 553.121 296.763C553.308 296.834 553.535 296.665 553.624 296.389C553.713 296.113 553.638 295.828 553.451 295.757C553.264 295.685 553.037 295.854 552.948 296.13Z" fill="#080435"/>
<path d="M555.877 297.795C555.788 298.071 555.864 298.356 556.05 298.427C556.237 298.499 556.464 298.329 556.553 298.053C556.642 297.777 556.567 297.493 556.38 297.421C556.193 297.346 555.97 297.515 555.877 297.795Z" fill="#080435"/>
<path d="M558.619 392.705C558.605 392.647 557.381 386.638 556.224 381.884C555.093 377.255 550.633 376.017 550.589 376.008L550.704 375.572C550.753 375.586 555.472 376.894 556.665 381.777C557.826 386.54 559.05 392.554 559.064 392.616L558.619 392.705Z" fill="#020202"/>
<path d="M586.528 394.356L584.681 394.321L584.828 386.495C584.899 384.51 586.288 382.845 588.131 382.516L593.931 381.479C595.631 381.176 597.314 382.049 598.115 383.656L598.128 383.687L601.832 391.815L600.153 392.58L596.459 384.47C596.023 383.611 595.141 383.144 594.26 383.299L588.46 384.337C587.467 384.515 586.715 385.445 586.675 386.549L586.528 394.356Z" fill="#131F2D"/>
<path d="M581.961 418.927L609.216 416.844C611.139 416.697 612.586 414.921 612.466 412.869L611.224 392.073C611.095 389.896 609.256 388.298 607.231 388.601L574.567 393.546C572.32 393.884 570.962 396.382 571.799 398.634L578.449 416.568C579.014 418.09 580.434 419.043 581.961 418.927Z" fill="#FB6504"/>
<path d="M592.386 405.547L592.319 405.534L572.827 401.728L572.912 401.309L592.333 405.102L611.375 396.003L611.562 396.391L592.386 405.547Z" fill="#131F2D"/>
<path d="M592.328 407.238C592.947 407.127 593.365 406.495 593.263 405.836L593.08 404.679C592.978 404.02 592.386 403.57 591.767 403.677C591.149 403.789 590.73 404.421 590.833 405.079L591.015 406.237C591.117 406.9 591.709 407.35 592.328 407.238Z" fill="#131F2D"/>
<path d="M583.221 382.058C583.648 381.168 584.124 379.694 584.596 378.283C584.979 377.148 585.362 376.053 585.718 375.345C585.905 374.98 587.124 373.262 590.049 373.284C592.996 373.307 593.33 374.566 593.33 374.566C593.33 374.566 594.518 376.672 595.497 380.215C595.582 380.402 595.649 380.616 595.702 380.865C596.049 382.583 596.837 384.956 595.862 385.868C594.798 386.861 594.135 385.151 593.868 384.212C594.051 385.071 594.264 386.727 593.481 387.662C592.653 388.646 591.709 385.957 591.295 384.586C591.291 384.586 591.286 384.586 591.286 384.591C591.58 385.819 591.985 388.201 590.944 388.846C589.711 389.612 588.763 385.953 588.509 385.116C588.478 385.116 588.446 385.12 588.42 385.12C587.699 390.328 585.771 387.698 585.335 383.687C584.627 384.519 583.029 386.015 582.513 385.632C581.908 385.178 582.887 382.752 583.221 382.058Z" fill="#FF7955"/>
<path d="M553.7 300.502C553.602 300.867 553.344 301.107 553.126 301.04C552.908 300.973 552.81 300.622 552.908 300.257C553.006 299.892 553.264 299.651 553.482 299.718C553.7 299.785 553.798 300.137 553.7 300.502Z" fill="#F3F3F3"/>
<path d="M308.672 364.925C307.821 366.39 306.744 369.688 305.925 371.17C305.569 371.811 304.505 374.064 305.044 374.536C305.511 374.949 307.136 373.601 307.835 372.857C308.12 377.812 310.568 384.903 310.661 374.478C310.666 374.478 310.67 374.478 310.679 374.478C310.759 375.533 311.204 381.404 312.451 380.736C313.55 380.149 313.39 375.929 313.279 374.193C313.292 374.188 313.31 374.188 313.323 374.184C313.581 375.938 314.302 380.157 315.179 379.232C316.283 378.065 316.207 373.441 316.207 373.441C316.207 373.441 316.421 379.352 317.846 378.177C318.647 377.513 318.202 374.144 317.899 372.052C317.837 371.611 317.779 371.228 317.739 370.939C317.708 370.699 317.654 370.489 317.587 370.302C316.875 366.839 315.883 364.734 315.883 364.734C315.883 364.734 315.126 362.045 312.286 362.286C310.47 362.437 309.037 364.293 308.672 364.925Z" fill="#FF7955"/>
<path d="M306.526 365.637C296.261 358.377 307.287 335.894 303.023 320.382C302.035 316.785 301.607 315.432 300.753 313.429C300.067 311.817 301.919 308.684 304.465 307.388C306.855 306.173 312.584 306.974 313.038 307.789C319.951 320.208 322.185 340.59 318.74 366.612C318.736 366.612 310.933 368.753 306.526 365.637Z" fill="#FB6504"/>
<path d="M291.276 459.799C291.276 459.799 291.365 463.543 293.715 464.602C296.07 465.657 302.889 466.61 300.339 469.018C298.879 470.398 291.984 469.507 290.039 469.507C288.093 469.507 286.268 470.42 284.822 469.018C283.233 467.478 284.822 459.799 284.822 459.799C284.822 459.799 286.5 460.743 288.009 460.698C290.19 460.636 291.276 459.799 291.276 459.799Z" fill="#131F2D"/>
<path d="M311.578 346.787C311.578 346.787 312.046 363.688 307.038 396.107C303.424 419.511 299.15 443.099 297.058 454.405C296.311 458.451 293.15 461.407 289.407 461.567L287.395 461.656C283.344 461.829 280.059 458.086 280.357 453.635L285.441 377.14L286.691 351.963L311.578 346.787Z" fill="#364154"/>
<path d="M268.984 459.799C268.984 459.799 269.073 463.543 271.423 464.602C273.778 465.657 280.597 466.61 278.047 469.018C276.587 470.398 269.692 469.507 267.747 469.507C265.801 469.507 263.976 470.42 262.53 469.018C260.941 467.478 262.53 459.799 262.53 459.799C262.53 459.799 264.208 460.743 265.717 460.698C267.898 460.636 268.984 459.799 268.984 459.799Z" fill="#131F2D"/>
<path d="M289.291 346.787C289.291 346.787 289.758 363.688 284.751 396.107C281.136 419.511 276.863 443.099 274.771 454.405C274.023 458.451 270.863 461.407 267.119 461.567L265.107 461.656C261.056 461.829 257.771 458.086 258.07 453.635L263.153 377.14L264.404 351.963L289.291 346.787Z" fill="#364154"/>
<path d="M261.938 365.308C261.987 367.347 273.44 368.157 287.604 367.681C301.768 367.204 313.087 365.095 313.038 363.056C312.989 361.017 301.594 359.82 287.43 360.296C273.266 360.772 261.889 363.27 261.938 365.308Z" fill="#131F2D"/>
<path d="M265.405 307.58C265.405 307.58 267.911 296.892 286.389 296.785C313.038 296.63 310.572 322.99 313.038 363.056C313.038 363.056 286.789 359.058 261.924 364.805C261.924 364.805 259.619 323.911 265.405 307.58Z" fill="#FB6504"/>
<path d="M258.582 306.049L270.649 313.237C270.649 313.237 297.076 315.819 304.091 314.577C311.106 313.331 313.034 307.785 313.034 307.785C313.034 307.785 305.56 299.461 292.861 297.24C291.668 297.03 290.43 296.875 289.148 296.786C286.994 296.634 284.835 296.665 282.73 296.923C266.634 298.878 258.582 306.049 258.582 306.049Z" fill="#FB6504"/>
<path d="M310.804 364.707C310.804 364.707 295.456 359.847 263.674 366.519L263.429 371.442L310.025 373.214L310.804 364.707Z" fill="#364154"/>
<path d="M256.271 364.805C257.384 351.634 266.429 317.163 267.48 315.276C268.33 313.758 266.807 310.42 264.413 308.831C262.165 307.339 259.258 305.434 258.582 306.048C249.083 314.671 240.906 346.181 243.483 363.639L256.271 364.805Z" fill="#FB6504"/>
<path d="M280.388 297.253C282.302 299.79 285.734 299.43 288.423 298.152C290.582 297.124 290.274 297.146 289.976 296.772C289.246 295.846 288.641 295.624 288.601 294.56L288.547 293.167L288.543 292.993L288.476 291.172L288.356 288.034L288.044 279.782L285.654 288.074L285.249 289.485L283.856 294.333C283.397 295.904 280.402 297.248 280.388 297.253Z" fill="#FF7955"/>
<path d="M284.955 290.732C284.955 290.732 286.104 292.78 288.548 293.167L288.543 292.993L288.476 291.173C287.15 291.035 284.955 290.732 284.955 290.732Z" fill="#131F2D"/>
<path d="M300.597 346.079C300.597 346.079 299.827 353.699 294.797 357.821C294.797 357.821 291.668 355.618 289.406 352.017C288.298 350.334 287.408 348.335 287.118 346.083C286.998 345.073 286.976 343.208 287.02 340.795C287.092 338.85 287.212 336.544 287.332 334.029C287.55 329.622 287.862 324.619 288.08 319.905C288.2 317.315 288.298 314.8 288.343 312.543C288.44 307.749 288.32 303.992 287.764 302.67L290.172 301.864C290.172 301.864 291.209 304.74 292.629 309.12C293.159 310.802 293.76 312.694 294.387 314.719C295.349 317.96 296.386 321.561 297.325 325.189C297.833 327.183 298.336 329.204 298.745 331.176C299.635 335.244 300.312 339.135 300.526 342.397C300.646 343.746 300.672 344.961 300.597 346.079Z" fill="#00A3FE"/>
<path d="M243.487 363.639C243.411 365.544 246.229 367.253 249.777 367.453C253.329 367.654 256.267 366.269 256.342 364.364C256.418 362.459 253.6 360.75 250.053 360.55C246.501 360.349 243.563 361.729 243.487 363.639Z" fill="#131F2D"/>
<path d="M313.194 363.069L312.874 363.043C312.896 362.758 315.032 334.483 307.425 316.994L307.719 316.865C315.362 334.43 313.216 362.784 313.194 363.069Z" fill="#131F2D"/>
<path d="M261.626 337.63L261.314 337.559C263.34 328.656 267.542 322.318 267.586 322.255L267.853 322.433C267.809 322.496 263.638 328.785 261.626 337.63Z" fill="#131F2D"/>
<path d="M290.84 274.525C290.84 274.525 291.917 276.248 292.233 278.794C292.549 281.344 288.401 276.35 288.401 276.35L290.84 274.525Z" fill="#131F2D"/>
<path d="M289.535 291.046C293.14 289.769 294.749 285.023 293.128 280.446C291.507 275.87 287.27 273.195 283.664 274.473C280.058 275.75 278.449 280.495 280.071 285.072C281.692 289.648 285.929 292.323 289.535 291.046Z" fill="#FF7955"/>
<path d="M279.556 283.69L282.569 282.159C283.233 281.82 283.731 281.188 283.9 280.418C284.19 279.096 284.782 278.25 287.737 277.267C291.481 276.02 293.146 272.726 292.87 270.492C292.585 268.213 290.225 267.487 288.699 269.201C287.172 270.915 287.159 268.128 285.289 268.542C281.795 269.308 282.071 272.312 279.311 273.256C275.692 274.489 270.235 279.844 275.487 285.479L279.556 283.69Z" fill="#131F2D"/>
<path d="M287.261 281.727C287.288 281.691 287.296 281.642 287.288 281.598C287.27 281.517 287.194 281.468 287.118 281.491C287.074 281.504 286.037 281.682 285.912 282.986C285.903 283.066 285.957 283.142 286.032 283.155C286.108 283.164 286.161 283.102 286.188 283.026C286.446 282.247 287.154 281.793 287.19 281.785C287.216 281.771 287.243 281.749 287.261 281.727Z" fill="#080435"/>
<path d="M287.279 283.748C287.466 284.041 287.782 284.162 287.977 284.015C288.173 283.868 288.182 283.512 287.995 283.218C287.808 282.924 287.492 282.804 287.296 282.951C287.101 283.098 287.092 283.458 287.279 283.748Z" fill="#080435"/>
<path d="M291.588 279.288C291.614 279.265 291.628 279.23 291.623 279.185C291.614 279.109 291.556 279.038 291.49 279.029C291.45 279.025 290.546 278.793 290.297 279.866C290.279 279.933 290.319 280.018 290.381 280.053C290.444 280.089 290.497 280.058 290.528 280C290.835 279.426 291.485 279.301 291.521 279.305C291.548 279.31 291.57 279.301 291.588 279.288Z" fill="#080435"/>
<path d="M291.093 281.268C291.205 281.607 291.476 281.807 291.703 281.722C291.93 281.638 292.024 281.295 291.912 280.957C291.801 280.618 291.53 280.418 291.303 280.503C291.08 280.587 290.982 280.93 291.093 281.268Z" fill="#080435"/>
<path d="M275.483 285.479C275.483 285.479 279.28 289.681 282.462 288.893C282.462 288.893 278.737 286.005 283.201 281.7C283.201 281.7 278.145 282.702 275.483 285.479Z" fill="#131F2D"/>
<path d="M280.704 286.619C281.506 286.819 282.289 286.356 282.458 285.586C282.627 284.816 282.111 284.028 281.31 283.828C280.509 283.628 279.725 284.091 279.556 284.861C279.391 285.631 279.903 286.419 280.704 286.619Z" fill="#FF7955"/>
<path d="M291.783 270.047C291.107 270.047 290.791 269.535 290.72 269.223C290.697 269.139 290.751 269.05 290.84 269.028C290.924 269.005 291.013 269.059 291.036 269.143C291.053 269.219 291.245 269.864 292.046 269.695C292.135 269.677 292.22 269.731 292.237 269.82C292.255 269.909 292.202 269.993 292.113 270.011C291.988 270.038 291.881 270.047 291.783 270.047Z" fill="#00A3FE"/>
<path d="M288.418 275.753L288.36 275.678C288.396 275.651 291.917 272.909 291.369 270.666C291.209 270.016 290.973 269.642 290.648 269.517C290.145 269.326 289.504 269.767 288.939 270.154C288.85 270.216 288.765 270.274 288.681 270.327L288.627 270.247C288.712 270.194 288.797 270.132 288.886 270.074C289.469 269.673 290.136 269.219 290.684 269.428C291.044 269.566 291.298 269.962 291.467 270.643C291.699 271.6 291.249 272.789 290.154 274.08C289.331 275.05 288.427 275.749 288.418 275.753Z" fill="#F3F3F3"/>
<path d="M278.029 274.618L278.007 274.525C282.026 273.635 283.117 270.612 283.126 270.581L283.219 270.612C283.21 270.643 282.102 273.719 278.029 274.618Z" fill="#F3F3F3"/>
<path d="M253.921 364.956C255.087 366.14 256.908 369.038 258.052 370.249C258.55 370.774 260.108 372.657 259.699 373.262C259.343 373.788 257.455 372.928 256.601 372.403C257.491 377.273 256.792 384.8 254.25 374.74C254.246 374.74 254.242 374.745 254.237 374.745C254.406 375.786 255.359 381.586 253.997 381.283C252.795 381.016 251.954 376.89 251.655 375.181C251.642 375.181 251.624 375.185 251.611 375.185C251.775 376.952 252.074 381.23 251.005 380.576C249.666 379.748 248.646 375.252 248.646 375.252C248.646 375.252 249.83 381.025 248.179 380.282C247.244 379.859 246.884 376.481 246.683 374.371C246.643 373.93 246.608 373.543 246.576 373.249C246.55 373.009 246.554 372.79 246.576 372.59C246.452 369.042 246.915 366.741 246.915 366.741C246.915 366.741 247.017 363.932 249.817 363.389C251.593 363.038 253.414 364.44 253.921 364.956Z" fill="#FF7955"/>
<path d="M283.882 402.294L283.678 402.253C283.722 402.018 288.227 378.439 289.197 374.74C290.181 370.983 293.76 370.111 293.795 370.102L293.844 370.302C293.809 370.311 290.35 371.157 289.398 374.789C288.432 378.488 283.931 402.058 283.882 402.294Z" fill="#131F2D"/>
<path d="M288.347 312.543C288.445 307.749 288.325 303.992 287.769 302.67L290.177 301.864C290.177 301.864 291.214 304.74 292.634 309.12C291.187 310.237 289.647 311.452 288.347 312.543Z" fill="#016EB9"/>
<path d="M297.325 325.189C293.934 328.016 289.139 332.084 287.337 334.029C287.555 329.622 287.866 324.619 288.085 319.905L294.392 314.724C295.349 317.96 296.386 321.561 297.325 325.189Z" fill="#016EB9"/>
<path d="M300.526 342.397C297.468 344.988 292.607 349.11 289.406 352.012C288.298 350.33 287.408 348.331 287.118 346.079C286.998 345.068 286.976 343.203 287.02 340.79L298.745 331.176C299.635 335.244 300.312 339.13 300.526 342.397Z" fill="#016EB9"/>
<path d="M286.433 298.561C286.433 298.561 289.678 297.48 290.542 298.321C291.405 299.162 290.769 302.999 289.273 303.342C287.782 303.68 284.955 299.487 286.433 298.561Z" fill="#00A3FE"/>
<path d="M288.338 297.653C288.338 297.653 284.1 296.042 283.273 294.426C282.445 292.815 278.06 296.54 278.136 297.653C278.211 298.766 286.112 304.94 286.633 304.161C287.15 303.382 289.375 298.713 288.338 297.653Z" fill="#A0462D"/>
<path d="M288.338 297.653C288.338 297.653 288.97 295.962 288.667 295.04C288.667 295.04 288.467 294.235 289.112 294.288C289.758 294.342 293.27 296.986 293.582 297.791C293.893 298.597 293.942 302.381 292.807 302.657C291.672 302.933 288.93 298.873 288.61 298.472C288.285 298.072 288.338 297.653 288.338 297.653Z" fill="#A0462D"/>
<path d="M289.251 303.418C288.298 303.418 287.483 302.51 287.448 302.474L287.568 302.367C287.577 302.376 288.369 303.258 289.251 303.258C289.259 303.258 289.264 303.258 289.273 303.258C290.141 303.244 290.662 301.219 290.666 301.201L290.822 301.241C290.8 301.33 290.265 303.405 289.277 303.422C289.268 303.418 289.259 303.418 289.251 303.418Z" fill="#131F2D"/>
<path d="M290.368 286.979C290.368 287.465 290.613 287.856 290.92 287.856C291.223 287.856 291.472 287.465 291.472 286.979C291.472 286.494 291.227 286.103 290.92 286.103C290.613 286.103 290.368 286.494 290.368 286.979Z" fill="#F3F3F3"/>
<path d="M432.604 174.598C425.838 161.195 399.678 144.183 391.665 145.576C389.943 145.874 401.245 122.202 405.059 124.611C418.244 132.952 437.843 151.336 442.681 164.725L432.604 174.598Z" fill="#F3F3F3"/>
<path d="M435.328 166.702C438.559 162.669 441.524 163.225 442.681 164.725C443.838 166.225 442.423 169.546 439.521 172.137C436.618 174.727 433.765 176.094 432.608 174.594C431.446 173.098 432.862 169.778 435.328 166.702Z" fill="#131F2D"/>
<path d="M435.786 171.776C435.768 173.441 436.414 176.748 436.423 178.417C436.427 179.138 436.596 181.573 437.26 181.671C437.838 181.76 438.55 179.77 438.786 178.778C441.328 182.713 446.652 187.249 441.871 178.591C441.876 178.586 441.88 178.586 441.885 178.582C442.441 179.41 445.543 184.017 446.26 182.793C446.897 181.716 444.8 178.319 443.897 176.944C443.905 176.935 443.919 176.922 443.928 176.913C444.956 178.221 447.515 181.319 447.809 180.078C448.179 178.52 445.962 174.74 445.962 174.74C445.962 174.74 448.886 179.503 449.518 177.767C449.875 176.788 447.938 174.246 446.71 172.68C446.451 172.35 446.224 172.065 446.06 171.847C445.922 171.665 445.779 171.522 445.637 171.407C443.434 168.932 441.64 167.73 441.64 167.73C441.64 167.73 439.761 165.918 437.531 167.645C436.116 168.749 435.795 171.055 435.786 171.776Z" fill="#FF7955"/>
<path d="M376.081 267.059C376.081 267.059 377.555 271.043 375.52 273.296C373.486 275.548 366.711 279.857 370.397 281.156C372.511 281.9 379.389 277.622 381.436 276.679C383.484 275.735 385.785 275.811 386.72 273.634C387.748 271.239 382.865 263.935 382.865 263.935C382.865 263.935 381.494 265.737 379.887 266.427C377.577 267.411 376.081 267.059 376.081 267.059Z" fill="#131F2D"/>
<path d="M435.132 283.485C435.132 283.485 435.35 287.767 432.75 289.2C430.155 290.633 422.455 292.387 425.566 294.884C427.351 296.318 435.136 294.626 437.357 294.439C439.579 294.248 441.737 295.111 443.269 293.371C444.951 291.457 442.494 282.853 442.494 282.853C442.494 282.853 440.66 284.09 438.933 284.188C436.44 284.339 435.132 283.485 435.132 283.485Z" fill="#131F2D"/>
<path d="M386.114 184.787C386.114 184.787 377.385 179.779 390.178 209.033C399.415 230.15 419.067 267.772 428.864 280.747C431.246 283.903 434.762 286.209 438.955 285.229L441.208 284.704C445.739 283.645 448.548 279.1 447.226 274.965L413.89 179.971C413.89 179.971 411.807 177.309 400.189 178.635C385.954 180.264 386.114 184.787 386.114 184.787Z" fill="#364154"/>
<path d="M374.06 186.759C374.06 186.759 356.589 200.709 352.062 218.893C346.917 239.546 369.449 267.082 374.826 269.21C378.334 270.594 381.125 269.218 385.099 261.785C387.476 257.338 375.912 232.01 379.535 223.295C383.92 212.754 405.375 204.034 405.375 204.034L403.296 176.904C403.296 176.904 387.503 180.594 374.06 186.759Z" fill="#364154"/>
<path d="M411.567 131.866C411.567 131.866 408.464 120.658 388.87 121.437C373.776 122.038 365.332 124.188 363.502 134.96C362.852 138.783 361.303 152.969 369.396 190.712C369.396 190.712 396.023 203.153 420.874 189.563C420.874 189.563 417.082 169.417 412.591 138.449C412.208 135.832 412.355 133.834 411.567 131.866Z" fill="#F3F3F3"/>
<path d="M384.436 126.253C385.38 129.948 392.404 156.433 431.028 146.373C433.423 145.75 435.937 145.901 438.248 146.813L444.617 149.328C445.423 149.649 445.704 150.726 445.165 151.447L441.341 156.579C438.889 159.873 435.466 162.161 431.642 163.083C423.63 165.015 409.315 166.929 397.22 160.354C382.861 152.547 380.996 133.856 380.822 126.774C380.795 125.63 382.01 124.967 382.847 125.665C383.065 125.843 384.365 125.973 384.436 126.253Z" fill="#00A3FE"/>
<path d="M388.264 118.704L387.214 113.358L386.907 111.8L385.109 102.648L384.014 111.466L383.355 116.758L383.145 118.432C383.003 119.567 382.335 119.745 381.467 120.658C381.116 121.027 378.868 123.262 381.085 124.593C383.849 126.253 389.417 124.708 391.701 122.193C391.692 122.193 388.603 120.435 388.264 118.704Z" fill="#FF7955"/>
<path d="M387.495 114.795C387.495 114.795 385.679 116.669 383.355 116.763L383.662 114.604L387.495 114.795Z" fill="#131F2D"/>
<path d="M378.81 98.6504C378.81 98.6504 378.102 100.751 378.392 103.507C378.681 106.258 381.801 99.8745 381.801 99.8745L378.81 98.6504Z" fill="#5C305D"/>
<path d="M378.022 104.255C379.108 99.0958 383.208 95.6995 387.178 96.6699C391.153 97.6403 393.495 102.603 392.408 107.762C391.322 112.921 387.223 116.318 383.252 115.347C379.282 114.381 376.94 109.414 378.022 104.255Z" fill="#FF7955"/>
<path d="M392.831 105.051L389.31 104.299C388.536 104.134 387.859 103.609 387.499 102.857C386.876 101.557 386.052 100.841 382.727 100.645C378.512 100.395 375.97 97.4264 375.721 95.0138C375.467 92.5523 377.755 91.1279 379.767 92.49C381.779 93.8521 381.116 90.9365 383.168 90.8385C387.005 90.656 387.445 93.8699 390.557 94.0791C394.639 94.3506 401.64 98.4012 397.523 105.773L392.831 105.051Z" fill="#131F2D"/>
<path d="M384.784 105.532C384.739 105.532 384.695 105.51 384.663 105.47C384.614 105.398 384.623 105.301 384.69 105.243C384.73 105.212 385.549 104.37 386.671 105.105C386.742 105.149 386.769 105.247 386.724 105.323C386.684 105.398 386.6 105.407 386.52 105.381C385.732 105.109 384.908 105.47 384.877 105.496C384.846 105.519 384.815 105.532 384.784 105.532Z" fill="#080435"/>
<path d="M379.393 104.29C379.362 104.268 379.353 104.223 379.362 104.157C379.384 104.045 379.464 103.93 379.549 103.889C379.598 103.867 380.751 103.226 380.907 104.664C380.915 104.753 380.858 104.887 380.773 104.962C380.688 105.038 380.631 105.007 380.599 104.935C380.301 104.228 379.513 104.272 379.473 104.29C379.442 104.308 379.415 104.303 379.393 104.29Z" fill="#080435"/>
<path d="M380.613 106.325C380.626 106.707 380.426 107.028 380.163 107.037C379.905 107.046 379.687 106.743 379.673 106.356C379.66 105.973 379.86 105.653 380.123 105.644C380.386 105.639 380.604 105.942 380.613 106.325Z" fill="#080435"/>
<path d="M397.518 105.772C397.518 105.772 394.576 111.234 391.055 111.305C391.055 111.305 394.242 107.237 388.536 104.001C388.536 103.996 394.064 103.618 397.518 105.772Z" fill="#5C305D"/>
<path d="M392.337 108.43C391.549 108.866 390.615 108.604 390.254 107.847C389.894 107.09 390.236 106.12 391.024 105.684C391.812 105.247 392.747 105.51 393.107 106.267C393.472 107.028 393.125 107.994 392.337 108.43Z" fill="#FF7955"/>
<path d="M380.408 92.165C380.337 92.165 380.261 92.1605 380.181 92.1516L380.208 91.9468C381.174 92.0759 381.325 91.248 381.329 91.2124L381.534 91.248C381.534 91.2524 381.369 92.165 380.408 92.165Z" fill="#131F2D"/>
<path d="M381.641 99.2558C381.627 99.2513 380.519 98.775 379.424 97.9916C377.968 96.95 377.203 95.8372 377.216 94.7689C377.225 94.0033 377.399 93.5136 377.746 93.2733C378.271 92.9083 379.068 93.1976 379.771 93.4468C379.878 93.4869 379.98 93.5225 380.083 93.5581L380.047 93.6561C379.945 93.6205 379.842 93.5848 379.736 93.5448C379.055 93.3 378.284 93.024 377.804 93.3578C377.488 93.5804 377.328 94.0389 377.319 94.7689C377.292 97.266 381.636 99.1356 381.681 99.1534L381.641 99.2558Z" fill="#F3F3F3"/>
<path d="M391.772 95.1518C389.675 95.1518 388.206 94.4619 387.325 93.8609C386.301 93.1621 385.825 92.4276 385.821 92.4187L385.91 92.3608C385.927 92.3875 387.806 95.2364 392.217 95.0361L392.222 95.1384C392.07 95.1474 391.919 95.1518 391.772 95.1518Z" fill="#F3F3F3"/>
<path d="M379.909 110.509C379.909 110.509 380.194 112.405 382.082 112.525C384.12 112.654 384.628 111.007 384.628 111.007C384.628 111.007 381.886 111.39 379.909 110.509Z" fill="#F3F3F3"/>
<path d="M386.613 107.197C386.586 107.197 386.564 107.192 386.542 107.174C385.674 106.649 384.472 106.943 384.459 106.947C384.383 106.965 384.307 106.921 384.289 106.845C384.272 106.769 384.316 106.694 384.392 106.676C384.445 106.663 385.718 106.351 386.689 106.939C386.755 106.979 386.778 107.063 386.738 107.13C386.706 107.174 386.657 107.197 386.613 107.197Z" fill="#131F2D"/>
<path d="M385.416 123.226C385.416 123.226 381.93 122.238 381.049 123.168C380.168 124.098 381 128.14 382.602 128.429C384.2 128.719 387.023 124.134 385.416 123.226Z" fill="#00A3FE"/>
<path d="M382.584 128.514C381.547 128.514 380.902 126.368 380.875 126.279L381.04 126.23C381.044 126.253 381.676 128.345 382.584 128.345C382.589 128.345 382.598 128.345 382.602 128.345C383.546 128.318 384.365 127.325 384.374 127.317L384.507 127.423C384.472 127.468 383.635 128.487 382.611 128.514C382.598 128.514 382.589 128.514 382.584 128.514Z" fill="#131F2D"/>
<path d="M383.724 183.006C384.062 183.554 384.748 183.705 385.255 183.345C385.767 182.984 385.905 182.245 385.567 181.693C385.229 181.146 384.619 180.839 384.107 181.204C383.39 181.716 383.39 182.454 383.724 183.006Z" fill="#131F2D"/>
<path d="M381.436 165.437C381.677 166.043 382.326 166.323 382.887 166.065C383.448 165.807 383.711 165.108 383.47 164.502C383.23 163.897 382.678 163.479 382.117 163.737C381.32 164.106 381.196 164.832 381.436 165.437Z" fill="#131F2D"/>
<path d="M379.206 147.677C379.447 148.282 380.096 148.563 380.657 148.305C381.218 148.046 381.481 147.348 381.24 146.742C381 146.137 380.448 145.718 379.887 145.977C379.095 146.342 378.966 147.072 379.206 147.677Z" fill="#131F2D"/>
<path d="M379.91 121.397C369.649 121.406 360.595 127.584 357.8 124.824C357.141 124.17 360.622 102.381 360.622 102.381L352.165 102.675C352.165 102.675 335.78 130.829 344.25 140.101C354.635 151.469 369.881 144.539 369.881 144.539C369.881 144.539 385.166 121.388 379.91 121.397Z" fill="#F3F3F3"/>
<path d="M376.064 108.933L355.29 104.842C354.23 104.633 353.531 103.542 353.723 102.403L354.132 99.9859C354.324 98.8464 355.339 98.0897 356.398 98.2989L377.172 102.39C378.231 102.599 378.93 103.689 378.739 104.829L378.329 107.246C378.138 108.385 377.123 109.142 376.064 108.933Z" fill="#131F2D"/>
<path d="M362.781 108.684L342.733 104.736C341.348 104.464 340.431 103.035 340.685 101.544L341.602 96.149C341.856 94.6578 343.182 93.6697 344.566 93.9456L364.615 97.8939C365.999 98.1655 366.916 99.5943 366.663 101.085L365.746 106.48C365.492 107.972 364.165 108.955 362.781 108.684Z" fill="#364154"/>
<path d="M346.191 106.975L314.396 100.716C313.261 100.494 312.509 99.3229 312.718 98.0988L314.311 88.72C314.521 87.5003 315.607 86.6902 316.742 86.9128L348.537 93.1712C349.672 93.3938 350.424 94.5645 350.215 95.7886L348.622 105.167C348.417 106.387 347.326 107.197 346.191 106.975Z" fill="#00A3FE"/>
<path d="M312.451 101.424L310.871 101.112C310.003 100.943 309.424 100.044 309.584 99.1047L311.752 86.3518C311.912 85.4171 312.744 84.7939 313.617 84.9675L315.197 85.2791C316.065 85.4482 316.644 86.3474 316.483 87.2866L314.316 100.039C314.156 100.974 313.319 101.593 312.451 101.424Z" fill="#131F2D"/>
<path d="M356.598 94.1727C356.598 94.1727 354.462 93.1578 353.611 95.2677C352.534 97.9518 353.58 102.412 354.288 100.721C354.911 99.2204 355.201 97.5111 355.201 97.5111C355.201 97.5111 354.355 102.875 355.583 102.666C356.812 102.457 357.537 98.0898 357.537 98.0898C357.537 98.0898 357.15 103.222 358.25 102.621C359.354 102.02 359.91 98.9623 359.91 98.9623C359.91 98.9623 359.362 103.106 360.627 102.376C361.891 101.646 361.699 98.5661 361.891 97.2441C362.073 95.9933 361.383 95.4591 360.253 95.3568C360.253 95.3568 359.18 94.5466 358.423 94.6802C358.134 94.7291 357.902 94.4042 357.702 94.3419C357.324 94.2306 356.598 94.1727 356.598 94.1727Z" fill="#FF7955"/>
<path d="M391.487 211.517C391.416 211.517 391.345 211.472 391.313 211.401C388.536 204.733 382.424 203.954 382.362 203.945C382.26 203.932 382.188 203.843 382.197 203.741C382.211 203.638 382.3 203.567 382.406 203.576C382.469 203.585 388.794 204.391 391.656 211.259C391.696 211.352 391.652 211.464 391.554 211.504C391.536 211.513 391.509 211.517 391.487 211.517Z" fill="#131F2D"/>
<path d="M362.99 146.568C362.883 146.568 362.803 146.484 362.803 146.381C362.861 139.304 363.311 134.977 363.315 134.937C363.329 134.835 363.413 134.759 363.52 134.773C363.622 134.781 363.698 134.875 363.685 134.977C363.68 135.022 363.235 139.331 363.177 146.386C363.177 146.488 363.093 146.568 362.99 146.568Z" fill="#131F2D"/>
<path d="M383.359 122.358C383.359 122.358 387.784 120.444 388.594 118.695C389.404 116.945 394.211 120.684 394.176 121.864C394.14 123.044 385.304 130.036 384.726 129.235C384.143 128.438 382.304 123.529 383.359 122.358Z" fill="#364154"/>
<path d="M383.359 122.358C383.359 122.358 382.616 120.595 382.901 119.603C382.901 119.603 383.079 118.735 382.398 118.828C381.717 118.917 378.102 121.886 377.808 122.759C377.515 123.627 377.617 127.642 378.832 127.878C380.047 128.118 382.785 123.68 383.105 123.24C383.43 122.799 383.359 122.358 383.359 122.358Z" fill="#364154"/>
<path d="M235.239 294.141C236.619 292.063 229.453 285.007 229.453 285.007C228.736 284.647 219.887 297.471 207.054 295.615C202.482 294.952 195.169 287.919 194.541 286.788C194.457 286.637 185.532 292.143 185.532 292.143C186.672 294.19 187.544 301.98 192.952 305.724C204.143 313.46 221.111 311.314 235.239 294.141Z" fill="#FF7955"/>
<path d="M186.903 440.574C186.903 440.574 187.077 444.166 189.36 445.115C191.644 446.063 198.214 446.788 195.828 449.17C194.457 450.536 187.82 449.873 185.95 449.926C184.081 449.98 182.349 450.91 180.929 449.601C179.367 448.164 180.707 440.752 180.707 440.752C180.707 440.752 182.34 441.611 183.791 441.527C185.879 441.407 186.903 440.574 186.903 440.574Z" fill="#131F2D"/>
<path d="M203.363 341.008C203.363 341.008 204.534 347.721 200.506 378.986C197.595 401.559 194.065 424.318 192.324 435.233C191.701 439.136 188.741 442.065 185.149 442.323L183.217 442.461C179.336 442.742 176.091 439.239 176.264 434.957L179.304 361.377L179.901 337.171L203.363 341.008Z" fill="#364154"/>
<path d="M165.501 441.193C165.501 441.193 165.675 444.785 167.958 445.733C170.242 446.681 176.812 447.407 174.426 449.788C173.055 451.155 166.418 450.492 164.549 450.545C162.679 450.598 160.948 451.524 159.528 450.22C157.965 448.782 159.305 441.371 159.305 441.371C159.305 441.371 160.939 442.23 162.39 442.145C164.477 442.03 165.501 441.193 165.501 441.193Z" fill="#131F2D"/>
<path d="M182.278 332.133C182.278 332.133 183.137 348.344 179.104 379.61C176.193 402.182 172.663 424.942 170.923 435.856C170.3 439.76 167.339 442.689 163.747 442.947L161.815 443.085C157.934 443.365 154.689 439.862 154.863 435.58L157.903 362.001L158.499 337.795L182.278 332.133Z" fill="#364154"/>
<path d="M156.465 350.677C156.559 352.631 168.475 348.362 182.06 347.512C195.645 346.662 204.721 341.725 204.628 339.767C204.534 337.812 194.586 338.551 181.001 339.402C167.411 340.252 156.367 348.718 156.465 350.677Z" fill="#131F2D"/>
<path d="M151.034 295.775C151.034 295.775 151.76 285.216 169.227 281.825C194.412 276.928 196.13 302.309 204.623 339.771C204.623 339.771 179.126 340.599 156.487 350.463C156.492 350.459 148.074 312.253 151.034 295.775Z" fill="#016EB9"/>
<path d="M144.349 295.539L156.87 300.191C156.87 300.191 182.269 297.925 188.715 295.499C195.16 293.073 196.13 287.482 196.13 287.482C196.13 287.482 187.78 280.939 175.428 281.099C174.266 281.112 173.073 281.188 171.844 281.331C169.783 281.571 167.749 281.985 165.791 282.604C150.861 287.322 144.349 295.539 144.349 295.539Z" fill="#016EB9"/>
<path d="M166.449 279.959L167.024 275.125L167.193 273.719L168.176 265.444L169.743 273.193L170.682 277.845L170.981 279.318C171.181 280.32 171.786 280.422 172.623 281.166C172.961 281.468 175.111 283.28 173.224 284.633C170.878 286.32 165.826 285.385 163.627 283.325C163.641 283.325 166.262 281.522 166.449 279.959Z" fill="#FF7955"/>
<path d="M203.363 341.009C203.363 341.009 192.035 340.403 158.174 351.184L158.041 356.521L202.816 356.926L203.363 341.009Z" fill="#364154"/>
<path d="M144.157 295.868C143.427 297.524 145.328 300.168 148.399 301.775C151.471 303.382 154.551 303.337 155.281 301.681C156.011 300.026 154.11 297.382 151.039 295.775C147.963 294.168 144.883 294.208 144.157 295.868Z" fill="#131F2D"/>
<path d="M150.625 355.56C149.65 342.905 149.17 324.637 152.397 309.489C153.145 305.982 153.478 304.651 154.186 302.679C154.756 301.09 152.806 298.205 150.291 297.128C147.932 296.118 144.66 296.972 144.246 297.769C143.548 299.127 142.969 301.584 142.074 305.479C138.976 319.015 138.531 335.836 140.685 357.002L150.625 355.56Z" fill="#FF7955"/>
<path d="M171.849 260.352C171.849 260.352 172.899 261.994 173.229 264.438C173.558 266.882 169.521 262.137 169.521 262.137L171.849 260.352Z" fill="#131F2D"/>
<path d="M170.752 276.222C174.206 274.965 175.713 270.395 174.119 266.015C172.525 261.635 168.433 259.103 164.98 260.36C161.526 261.617 160.019 266.187 161.613 270.567C163.207 274.947 167.299 277.479 170.752 276.222Z" fill="#FF7955"/>
<path d="M161.103 269.29L163.983 267.785C164.616 267.456 165.092 266.837 165.243 266.098C165.506 264.825 166.067 264.006 168.893 263.027C172.476 261.785 174.043 258.603 173.749 256.461C173.451 254.276 171.177 253.608 169.73 255.273C168.283 256.938 168.243 254.263 166.449 254.681C163.102 255.46 163.396 258.34 160.756 259.275C157.293 260.503 152.108 265.707 157.209 271.057L161.103 269.29Z" fill="#131F2D"/>
<path d="M168.079 267.794C168.105 267.759 168.114 267.714 168.101 267.67C168.083 267.594 168.007 267.55 167.936 267.567C167.896 267.581 166.899 267.768 166.792 269.019C166.783 269.099 166.837 269.17 166.908 269.179C166.979 269.188 167.033 269.125 167.055 269.054C167.295 268.302 167.972 267.857 168.003 267.848C168.039 267.839 168.065 267.821 168.079 267.794Z" fill="#080435"/>
<path d="M168.123 269.74C168.306 270.02 168.608 270.131 168.795 269.985C168.982 269.842 168.987 269.499 168.804 269.219C168.622 268.938 168.319 268.827 168.132 268.974C167.941 269.117 167.936 269.459 168.123 269.74Z" fill="#080435"/>
<path d="M172.579 265.577C172.605 265.56 172.623 265.528 172.623 265.484C172.623 265.413 172.574 265.337 172.512 265.319C172.476 265.31 171.635 264.981 171.288 265.974C171.266 266.036 171.292 266.12 171.35 266.165C171.408 266.209 171.461 266.183 171.497 266.129C171.849 265.617 172.485 265.573 172.512 265.582C172.539 265.595 172.561 265.591 172.579 265.577Z" fill="#080435"/>
<path d="M171.907 267.412C171.978 267.745 172.218 267.972 172.441 267.915C172.668 267.861 172.792 267.545 172.721 267.211C172.65 266.877 172.409 266.65 172.187 266.708C171.96 266.762 171.835 267.073 171.907 267.412Z" fill="#080435"/>
<path d="M157.213 271.053C157.213 271.053 160.899 275.046 163.948 274.249C163.948 274.249 160.342 271.52 164.584 267.332C164.584 267.336 159.737 268.355 157.213 271.053Z" fill="#131F2D"/>
<path d="M162.238 272.085C163.008 272.268 163.761 271.818 163.912 271.075C164.063 270.331 163.565 269.584 162.79 269.397C162.02 269.214 161.268 269.664 161.117 270.407C160.965 271.15 161.464 271.903 162.238 272.085Z" fill="#FF7955"/>
<path d="M164.584 267.336C164.584 267.336 165.546 271.52 166.565 271.983C167.584 272.446 172.721 270.803 174.742 268.907C175.654 271.48 174.733 274.427 172.507 275.784C171.773 276.234 170.958 276.55 170.104 276.715C168.354 277.049 166.512 276.942 165.279 275.566C164.905 275.148 164.464 271.841 164.464 271.841C164.464 271.841 164.081 269.949 162.79 269.392C162.79 269.397 163.547 267.87 164.584 267.336Z" fill="#131F2D"/>
<path d="M168.8 255.188C168.194 255.188 167.94 254.627 167.936 254.623L168.105 254.547C168.119 254.574 168.426 255.246 169.227 254.903L169.303 255.073C169.111 255.157 168.942 255.188 168.8 255.188Z" fill="#131F2D"/>
<path d="M169.534 261.563L169.476 261.491C169.485 261.482 170.335 260.81 171.11 259.875C171.817 259.016 172.601 257.761 172.316 256.644C172.156 256.025 171.929 255.665 171.613 255.549C171.128 255.371 170.518 255.798 169.979 256.176C169.894 256.234 169.814 256.292 169.734 256.346L169.681 256.27C169.761 256.217 169.841 256.159 169.926 256.101C170.482 255.709 171.119 255.264 171.644 255.46C171.991 255.589 172.24 255.967 172.405 256.617C172.975 258.825 169.676 261.451 169.534 261.563Z" fill="#F3F3F3"/>
<path d="M159.545 260.592L159.523 260.503C163.374 259.6 164.393 256.688 164.402 256.657L164.491 256.688C164.477 256.715 163.445 259.68 159.545 260.592Z" fill="#F3F3F3"/>
<path d="M173.705 271.017C173.705 271.017 172.054 272.019 170.073 272.361C170.073 272.361 170.794 274.173 172.663 273.247C173.754 272.713 173.705 271.017 173.705 271.017Z" fill="#F3F3F3"/>
<path d="M145.978 351.416C145.408 352.168 145.51 353.285 146.209 353.899L152.107 359.036C152.806 359.651 155.913 361.409 156.483 360.657C157.053 359.904 155.139 357.363 154.524 356.65C153.104 355.012 150.914 351.144 149.468 349.533C148.84 348.843 146.552 350.668 145.978 351.416Z" fill="#FF7955"/>
<path d="M140.204 351.344C140.204 351.344 139.198 355.288 139.425 361.168C139.497 362.958 150.509 363.131 150.954 361.186C151.399 359.241 149.521 352.942 149.521 352.942L140.204 351.344Z" fill="#FF7955"/>
<path d="M148.39 355.613C148.39 355.613 151.141 353.681 152.103 357.273C153.67 363.109 152.276 377.01 149.245 361.978C149.187 361.68 150.505 371.143 148.542 370.6C146.579 370.057 145.76 361.604 145.76 361.604C145.76 361.604 146.383 370.632 144.683 369.474C142.982 368.312 141.936 362.441 141.936 362.441C141.936 362.441 143.12 369.973 141.01 368.896C139.568 368.161 139.488 361.889 139.363 359.713C139.243 357.656 140.441 356.904 142.292 356.926C142.292 356.926 144.148 355.791 145.355 356.134C145.818 356.263 146.24 355.769 146.574 355.707C147.202 355.577 148.39 355.613 148.39 355.613Z" fill="#FF7955"/>
<path d="M178.459 385.966L178.156 385.931C178.174 385.797 179.821 372.51 181.067 367.738C182.322 362.922 188.096 358.769 188.154 358.729L188.327 358.978C188.269 359.018 182.585 363.114 181.356 367.818C180.123 372.568 178.477 385.833 178.459 385.966Z" fill="#131F2D"/>
<path d="M229.63 290.269C230.525 290.376 231.34 289.668 231.438 288.707L232.221 280.583C232.319 279.617 231.994 275.856 231.099 275.749C230.205 275.642 229.27 278.758 229.052 279.702C228.549 281.874 226.733 285.965 226.27 288.146C226.065 289.09 228.731 290.162 229.63 290.269Z" fill="#FF7955"/>
<path d="M232.72 295.517C232.72 295.517 236.339 294.275 240.79 290.861C242.143 289.824 236.272 279.786 234.518 280.449C232.76 281.113 228.883 286.24 228.883 286.24L232.72 295.517Z" fill="#FF7955"/>
<path d="M231.58 285.804C231.58 285.804 228.576 284.375 230.85 281.549C234.54 276.951 246.122 270.625 236.076 281.562C235.876 281.78 242.526 275.424 243.171 277.494C243.817 279.564 237.683 284.909 237.683 284.909C237.683 284.909 244.373 279.426 244.395 281.589C244.418 283.757 240.42 287.901 240.42 287.901C240.42 287.901 245.637 282.724 245.949 285.217C246.162 286.917 241.324 290.411 239.699 291.711C238.159 292.94 236.926 292.272 235.933 290.589C235.933 290.589 234.037 289.534 233.646 288.257C233.494 287.767 232.88 287.656 232.648 287.389C232.203 286.895 231.58 285.804 231.58 285.804Z" fill="#FF7955"/>
<path d="M57.2332 463.458C57.2332 463.458 66.0912 414.401 67.4667 412.958C68.8377 411.521 70.9609 412.798 70.2131 415.518C69.4653 418.238 59.1651 462.465 58.7333 463.458C58.3149 464.415 56.984 464.829 57.2332 463.458Z" fill="#131F2D"/>
<path d="M113.92 399.239C113.987 390.493 93.8984 364.204 83.4335 360.927C71.5842 357.215 56.3966 350.476 51.9364 362.659C47.4763 374.842 62.4191 412.366 62.4191 412.366C62.4191 412.366 63.247 415.7 66.2784 416.074C69.3052 416.448 106.598 417.752 106.656 416.074C106.691 414.997 119.19 401.024 113.92 399.239Z" fill="#B8C1C9"/>
<path d="M108.289 340.537C108.289 340.537 122.204 363.915 140.766 369.408L137.445 377.464C137.445 377.464 113.902 373.997 100.428 349.515L108.289 340.537Z" fill="#FF7955"/>
<path d="M122.685 457.68C122.685 457.68 122.582 461.464 124.901 462.67C127.22 463.876 134.053 465.243 131.36 467.517C129.816 468.826 122.907 467.517 120.944 467.402C118.981 467.286 117.094 468.101 115.705 466.6C114.178 464.949 116.177 457.302 116.177 457.302C116.177 457.302 117.824 458.352 119.346 458.397C121.545 458.464 122.685 457.68 122.685 457.68Z" fill="#131F2D"/>
<path d="M146.833 457.658C146.833 457.658 146.73 461.442 149.049 462.648C151.368 463.854 158.201 465.221 155.508 467.495C153.963 468.804 147.055 467.495 145.092 467.38C143.129 467.264 141.242 468.079 139.853 466.578C138.326 464.927 140.325 457.28 140.325 457.28C140.325 457.28 141.972 458.33 143.494 458.375C145.693 458.437 146.833 457.658 146.833 457.658Z" fill="#131F2D"/>
<path d="M149.375 451.408C147.639 426.624 147.229 409.905 139.942 399.159C131.97 387.399 110.595 379.084 102.356 378.568C88.9176 377.722 82.5835 379.877 82.5835 379.877C72.4969 402.462 88.2989 405.458 99.9834 406.077C100.371 406.099 100.758 406.121 101.145 406.148C108.223 406.629 120.802 408.565 125.565 416.132C129.335 422.128 131.952 430.545 133.056 452.25C133.27 456.416 136.515 459.648 140.387 459.532C140.396 459.527 150.002 460.32 149.375 451.408Z" fill="#016EB9"/>
<path d="M130.301 452.682C130.528 427.83 131.244 415.14 124.318 404.127C119.867 397.05 113.172 391.713 104.421 388.254C98.1759 385.788 90.8313 384.27 82.5876 383.754C69.1493 382.908 63.1089 381.159 63.1089 381.159C52.23 410.07 92.0198 403.931 102.378 416.248C106.891 421.616 112.482 431.823 113.586 453.532C113.8 457.698 117.045 460.93 120.917 460.814C120.922 460.818 130.216 461.771 130.301 452.682Z" fill="#016EB9"/>
<path d="M130.23 428.275C130.225 428.128 129.54 413.381 127.247 408.231C124.345 401.714 115.919 394.913 107.212 392.055L107.261 391.904C116.008 394.775 124.474 401.616 127.394 408.169C129.7 413.346 130.385 428.119 130.394 428.271L130.23 428.275Z" fill="#020202"/>
<path d="M72.6436 335.257C72.6436 335.257 78.3635 324.735 91.5437 327.966C104.724 331.193 110.096 345.687 111.04 380.496C111.04 380.496 98.8393 380.015 66.7768 391.463C62.9799 392.821 57.4069 391.744 59.361 384.778C62.9844 371.829 66.4919 346.003 72.6436 335.257Z" fill="#00A3FE"/>
<path d="M60.999 338.137L71.7043 341.075C71.7043 341.075 95.4117 348.625 102.049 348.682C108.685 348.74 111.432 343.514 111.432 343.514C111.432 343.514 106.077 333.731 94.8597 329.119C93.8048 328.683 92.7009 328.296 91.5436 327.966C89.5984 327.414 87.6264 326.929 85.6501 326.902C63.2692 326.626 60.999 338.137 60.999 338.137Z" fill="#00A3FE"/>
<path d="M60.9992 338.137C61.0259 339.33 64.2575 340.292 68.2236 340.283C72.1852 340.274 75.3812 339.303 75.3545 338.11C75.3278 336.917 72.0961 335.956 68.1301 335.965C64.164 335.969 60.9725 336.944 60.9992 338.137Z" fill="#131F2D"/>
<path d="M80.4377 327.067C81.8621 326.756 82.8859 325.696 83.3311 324.205L84.7288 319.54L85.1338 318.187L87.5153 310.224L87.6844 318.205L87.7868 322.994L87.818 324.361C87.8402 325.474 87.8803 326.898 88.9753 327.312C88.9753 327.312 90.3685 329.88 88.7215 330.579C86.1354 331.683 80.4333 327.067 80.4377 327.067Z" fill="#FF7955"/>
<path d="M76.9392 311.056C76.9392 311.056 77.5357 312.235 77.5223 315.017C77.5001 319.086 81.9113 319.482 82.6635 318.098C82.757 317.928 80.9498 311.55 80.9498 311.55L79.4586 311.109L76.9392 311.056Z" fill="#131F2D"/>
<path d="M84.711 319.411C84.7154 319.455 84.7243 319.5 84.7288 319.54C85.1294 322.077 87.7734 323.012 87.7734 323.012L87.7868 322.994L87.6844 318.204C86.8832 317.977 85.7481 317.777 85.1294 318.187C84.8134 318.4 84.6308 318.779 84.711 319.411Z" fill="#131F2D"/>
<path d="M87.7273 320.071C91.5041 319.313 93.7559 314.664 92.7568 309.687C91.7578 304.71 87.8862 301.29 84.1094 302.048C80.3327 302.806 78.0809 307.455 79.08 312.432C80.079 317.409 83.9506 320.829 87.7273 320.071Z" fill="#FF7955"/>
<path d="M86.8697 303.453C86.7539 303.782 88.9751 308.047 81.3723 311.47C73.7696 314.888 75.884 303.199 81.6395 301.25C89.95 298.437 92.7186 304.152 92.4693 306.578C92.2201 309.004 86.8697 303.453 86.8697 303.453Z" fill="#131F2D"/>
<path d="M75.025 301.018C75.025 301.018 78.3946 302.229 76.6942 304.806C74.9938 307.383 69.1849 310.005 71.6598 312.778C74.1302 315.551 76.7832 319.954 73.9833 321.432C71.179 322.909 69.2561 323.216 68.6952 326.105C68.1344 328.994 62.37 329.012 62.0406 325.865C61.7112 322.722 56.4365 321.427 57.7006 318.071C58.9648 314.715 63.1713 310.878 63.4517 306.907C63.7321 302.928 72.323 300.132 75.025 301.018Z" fill="#131F2D"/>
<path d="M81.8711 309.756C81.8711 309.756 79.5832 314.363 81.6485 317.768C81.6485 317.768 79.2226 316.121 78.9689 315.315C78.7196 314.51 78.4614 311.398 78.4614 311.398L81.8711 309.756Z" fill="#131F2D"/>
<path d="M80.4956 314.127C81.4526 314.683 82.5343 314.452 82.9126 313.606C83.291 312.76 82.8192 311.625 81.8621 311.069C80.9051 310.513 79.8234 310.744 79.4451 311.59C79.0667 312.435 79.5385 313.571 80.4956 314.127Z" fill="#FF7955"/>
<path d="M64.1639 328.46L64.0169 328.273C64.6357 327.779 64.9562 327.312 64.9918 326.835C65.0497 326.101 64.4309 325.424 63.7721 324.708C63.1356 324.013 62.4768 323.297 62.3834 322.451C62.2632 321.374 63.3893 320.8 64.4754 320.243C65.3078 319.816 66.1669 319.375 66.3672 318.743C66.4607 318.445 66.4073 318.115 66.207 317.742C65.9621 317.279 65.6995 316.874 65.4458 316.482C64.2974 314.706 63.3893 313.308 65.3301 308.941C67.7961 303.4 70.7384 302.3 73.556 301.935C73.8943 301.891 74.9671 302.073 75.1318 302.661C75.2965 303.248 74.4819 303.947 72.7102 304.739C72.6924 304.753 69.8036 306.444 69.2249 310.482C68.9267 312.574 70.5158 314.225 71.9179 315.685C73.2177 317.038 74.3394 318.204 73.3023 319.277C72.737 319.86 72.0604 320.292 71.4061 320.706C69.7546 321.752 68.1967 322.74 68.8109 326.088L68.575 326.132C67.9296 322.629 69.5543 321.596 71.277 320.51C71.9179 320.105 72.5856 319.682 73.1287 319.117C74.0056 318.209 73.0085 317.167 71.7444 315.854C70.3778 314.43 68.673 312.663 68.989 310.455C69.581 306.293 72.5723 304.548 72.6034 304.53C74.8558 303.524 74.9626 302.937 74.9047 302.732C74.7935 302.336 73.9165 302.135 73.5871 302.18C70.8407 302.532 67.9652 303.609 65.5482 309.044C63.6609 313.29 64.5333 314.643 65.6461 316.357C65.9043 316.753 66.1669 317.163 66.4206 317.635C66.6521 318.071 66.71 318.458 66.5987 318.819C66.3672 319.549 65.4636 320.012 64.5867 320.461C63.5229 321.004 62.5213 321.516 62.6237 322.433C62.7083 323.199 63.3404 323.889 63.9502 324.556C64.6446 325.313 65.2989 326.025 65.2322 326.862C65.1877 327.401 64.8404 327.926 64.1639 328.46Z" fill="#F3F3F3"/>
<path d="M80.6246 308.746L80.54 308.488C83.3977 307.571 84.2302 304.628 84.2391 304.597L84.5017 304.668C84.4928 304.7 83.6203 307.789 80.6246 308.746Z" fill="#F3F3F3"/>
<path d="M92.4071 315.16C90.8402 315.298 89.4336 313.789 89.2645 311.79C89.1755 310.722 89.4559 309.68 90.0435 308.932C90.5064 308.336 91.134 307.975 91.8017 307.917C93.3685 307.779 94.7752 309.288 94.9443 311.287C95.0333 312.355 94.7528 313.397 94.1697 314.145C93.8092 314.608 93.3507 314.928 92.8522 315.075C92.7053 315.115 92.5584 315.146 92.4071 315.16ZM90.1681 309.048C89.6116 309.76 89.3446 310.753 89.4292 311.777C89.5894 313.673 90.9159 315.111 92.3937 314.982C93.0169 314.924 93.6045 314.59 94.0407 314.029C94.5971 313.317 94.8642 312.324 94.7796 311.3C94.6194 309.404 93.2929 307.966 91.8151 308.095C91.6771 308.109 91.5391 308.136 91.4055 308.171C90.9381 308.314 90.5108 308.612 90.1681 309.048Z" fill="#364154"/>
<path d="M85.6724 316.09C84.1056 316.228 82.699 314.719 82.5299 312.721C82.4409 311.652 82.7213 310.611 83.3044 309.863C83.7673 309.267 84.3949 308.906 85.0626 308.848C86.6295 308.71 88.0361 310.219 88.2052 312.218C88.2943 313.286 88.0138 314.328 87.4307 315.075C87.0702 315.538 86.6117 315.859 86.1131 316.006C85.9707 316.05 85.8238 316.077 85.6724 316.09ZM83.4334 309.979C82.877 310.691 82.61 311.684 82.6946 312.707C82.8548 314.604 84.1813 316.041 85.6591 315.912C86.2822 315.859 86.8698 315.521 87.3061 314.96C87.8625 314.247 88.1296 313.255 88.045 312.231C87.8847 310.335 86.5583 308.897 85.0804 309.026C84.9425 309.04 84.8044 309.066 84.6709 309.102C84.2035 309.244 83.7762 309.547 83.4334 309.979Z" fill="#364154"/>
<path d="M90.1459 311.884C90.1726 311.875 90.1949 311.857 90.2038 311.826C90.2216 311.781 90.1994 311.728 90.1549 311.71C90.1103 311.692 89.0821 311.301 87.6354 311.991C87.5954 312.013 87.5731 312.062 87.5909 312.111C87.6087 312.155 87.6577 312.178 87.7022 312.155C89.0821 311.497 90.0836 311.875 90.0925 311.879C90.1103 311.888 90.1281 311.888 90.1459 311.884Z" fill="#364154"/>
<path d="M91.1252 315.738C91.1252 315.738 88.8506 316.473 86.3401 316.281C86.3401 316.281 86.7674 318.765 89.2913 318.195C90.7557 317.866 91.1252 315.738 91.1252 315.738Z" fill="#E9633E"/>
<path d="M91.1252 315.738C91.1252 315.738 90.6979 316.397 89.4026 316.771C88.1072 317.145 86.3401 316.281 86.3401 316.281C86.3401 316.281 89.3091 316.281 91.1252 315.738Z" fill="#F3F3F3"/>
<path d="M86.6295 310.967C86.6695 310.94 86.7007 310.896 86.7052 310.838C86.7141 310.744 86.6517 310.66 86.5672 310.651C86.5182 310.646 85.3475 310.379 84.7154 311.706C84.6754 311.79 84.7021 311.893 84.7822 311.937C84.8579 311.982 84.938 311.937 84.9959 311.866C85.5656 311.154 86.4915 310.98 86.536 310.989C86.5672 310.994 86.5983 310.985 86.6295 310.967Z" fill="#080435"/>
<path d="M85.8817 313.126C85.9707 313.522 86.2556 313.784 86.5227 313.718C86.7898 313.651 86.9322 313.273 86.8432 312.876C86.7542 312.48 86.4693 312.218 86.2022 312.284C85.9352 312.356 85.7927 312.729 85.8817 313.126Z" fill="#080435"/>
<path d="M92.287 310.214C92.3359 310.205 92.3804 310.179 92.4027 310.13C92.4428 310.05 92.4161 309.943 92.3404 309.898C92.2959 309.872 91.3077 309.146 90.2528 310.116C90.186 310.179 90.1771 310.286 90.2305 310.357C90.2839 310.428 90.3729 310.424 90.4531 310.379C91.232 309.952 92.149 310.174 92.1846 310.197C92.2202 310.214 92.2558 310.219 92.287 310.214Z" fill="#080435"/>
<path d="M90.8314 311.906C90.7736 312.306 90.9472 312.667 91.2143 312.716C91.4858 312.76 91.7529 312.471 91.8108 312.07C91.8686 311.67 91.695 311.309 91.428 311.26C91.1564 311.216 90.8893 311.505 90.8314 311.906Z" fill="#080435"/>
<path d="M110.497 469.659L110.061 469.614C109.723 469.579 109.469 468.978 109.496 468.27L112.87 378.777L119.28 375.359L111.512 467.856C111.45 468.915 111.005 469.712 110.497 469.659Z" fill="#131F2D"/>
<path d="M208.056 469.659L208.492 469.614C208.83 469.579 209.084 468.978 209.057 468.27L205.683 378.777L199.273 375.359L207.041 467.856C207.103 468.915 207.548 469.712 208.056 469.659Z" fill="#131F2D"/>
<path d="M156.657 391.121C188.824 391.121 214.902 387.488 214.902 383.006C214.902 378.525 188.824 374.892 156.657 374.892C124.489 374.892 98.4121 378.525 98.4121 383.006C98.4121 387.488 124.489 391.121 156.657 391.121Z" fill="#B8C1C9"/>
<path d="M214.897 379.267H98.4121V383.011H214.897V379.267Z" fill="#B8C1C9"/>
<path d="M156.657 387.382C188.824 387.382 214.902 383.749 214.902 379.267C214.902 374.785 188.824 371.152 156.657 371.152C124.489 371.152 98.4121 374.785 98.4121 379.267C98.4121 383.749 124.489 387.382 156.657 387.382Z" fill="#E1E1E1"/>
<path d="M198.361 385.143C198.258 385.143 198.165 385.067 198.151 384.96C198.134 384.844 198.214 384.733 198.334 384.72C203.212 384.021 207.107 383.22 209.912 382.334C210.023 382.298 210.143 382.36 210.179 382.472C210.214 382.583 210.152 382.703 210.041 382.739C207.214 383.634 203.297 384.439 198.392 385.143C198.378 385.143 198.369 385.143 198.361 385.143Z" fill="#131F2D"/>
<path d="M108.289 384.003C108.276 384.003 108.258 384.003 108.245 383.999C108.009 383.945 102.489 382.735 100.326 381.577C100.224 381.524 100.184 381.39 100.237 381.288C100.295 381.186 100.424 381.146 100.526 381.199C102.641 382.325 108.281 383.567 108.334 383.58C108.45 383.607 108.521 383.718 108.499 383.834C108.476 383.932 108.387 384.003 108.289 384.003Z" fill="#131F2D"/>
<path d="M105.485 370.787C105.485 370.787 112.482 367.952 114.801 368.975C117.121 369.999 119.36 373.195 117.797 372.888C116.235 372.581 114.339 371.593 114.339 371.593C114.339 371.593 118.296 373.903 117.392 374.668C116.488 375.434 113.065 373.387 113.065 373.387C113.065 373.387 117.57 376.542 116.502 376.965C115.434 377.388 112.028 374.967 112.028 374.967C112.028 374.967 116.11 378.083 114.859 378.541C113.609 379 111.503 375.942 110.599 376.707C109.696 377.468 107.466 380.86 105.191 378.416L105.485 370.787Z" fill="#FF7955"/>
<path d="M76.7655 371.17C84.6976 378.653 92.4963 380.104 105.182 378.417L105.485 370.787C96.2486 372.016 89.7899 366.71 84.4706 361.698C76.9079 354.562 74.6868 343.51 74.0547 338.511C73.9968 338.035 73.6986 337.639 73.2802 337.474C71.8958 336.926 68.455 336.032 63.247 337.661C62.7841 337.808 62.4725 338.275 62.4948 338.796C62.8865 348.304 66.7724 361.747 76.7655 371.17Z" fill="#FF7955"/>
<g opacity="0.3">
<path opacity="0.3" d="M78.3324 368.477C78.279 368.477 78.23 368.477 78.1766 368.473C77.4733 368.415 76.73 367.97 76.1914 367.284C75.2611 366.1 75.1675 364.529 75.9821 363.776C76.3071 363.478 76.7299 363.34 77.2107 363.38C77.914 363.438 78.6574 363.883 79.196 364.569C80.1263 365.753 80.2197 367.324 79.4052 368.076C79.1158 368.339 78.7464 368.477 78.3324 368.477ZM77.0549 363.825C76.7522 363.825 76.4896 363.923 76.2848 364.11C75.6394 364.702 75.7551 366.002 76.543 367.004C77.0059 367.596 77.6291 367.974 78.2077 368.023C78.5549 368.054 78.8621 367.956 79.0935 367.743C79.739 367.151 79.6233 365.851 78.8354 364.849C78.3725 364.257 77.7493 363.879 77.1662 363.83C77.1306 363.825 77.0949 363.825 77.0549 363.825Z" fill="#EC865C"/>
</g>
<path d="M119.07 379.752H142.845C143.343 379.752 143.784 379.409 143.94 378.906L148.881 363.024C149.13 362.223 148.573 361.399 147.786 361.399H124.924C123.882 361.399 122.956 362.112 122.627 363.171L117.975 378.132C117.726 378.929 118.283 379.752 119.07 379.752Z" fill="#131F2D"/>
<path d="M120.566 379.752H144.34C144.839 379.752 145.279 379.409 145.435 378.906L150.376 363.024C150.625 362.223 150.069 361.399 149.281 361.399H126.419C125.378 361.399 124.452 362.112 124.122 363.171L119.471 378.132C119.217 378.929 119.774 379.752 120.566 379.752Z" fill="#131F2D"/>
<path d="M137.223 370.057C137.223 369.456 136.577 369.207 136.012 369.207C135.446 369.207 134.525 369.87 134.534 370.716C134.538 371.629 135.202 371.749 135.767 371.749C136.328 371.744 137.223 370.823 137.223 370.057Z" fill="#DAEBE8"/>
<path d="M111.931 377.509H144.349V379.752H111.201C110.782 379.752 110.444 379.414 110.444 378.995C110.444 378.176 111.107 377.509 111.931 377.509Z" fill="#131F2D"/>
<path d="M122.257 369.425L122.102 369.385C122.151 369.189 123.286 364.609 124.047 363.127C124.821 361.622 125.774 361.328 125.814 361.315L125.858 361.466C125.85 361.471 124.933 361.76 124.189 363.198C123.437 364.671 122.271 369.381 122.257 369.425Z" fill="#F3F3F3"/>
<path d="M118.741 377.589V377.428C119.515 377.428 119.711 377.081 119.711 377.077L121.559 371.134L121.71 371.183L119.858 377.139C119.845 377.17 119.627 377.589 118.741 377.589Z" fill="#F3F3F3"/>
<g opacity="0.4">
<path opacity="0.4" d="M515.606 85.5597C515.606 85.5597 509.303 72.5041 493.35 74.1422C477.397 75.7758 479.297 88.8625 471.699 87.6339C464.101 86.4054 453.467 87.6339 451.188 95.8109C448.909 103.988 438.653 99.4921 438.274 106.441C437.896 113.393 450.048 118.299 464.101 112.165C478.153 106.031 484.99 116.928 504.741 114.956C524.491 112.984 526.939 110.527 538.628 111.755C550.317 112.984 550.041 104.366 544.722 98.6419C539.407 92.9176 517.885 93.4651 515.606 85.5597Z" fill="#EAEAEA"/>
</g>
<path d="M86.9545 160.488C86.9545 160.488 90.7826 152.56 100.468 153.553C110.154 154.545 109.002 162.491 113.613 161.748C118.225 161.004 124.683 161.748 126.068 166.715C127.452 171.683 133.679 168.95 133.906 173.169C134.138 177.389 126.758 180.372 118.225 176.646C109.692 172.92 105.543 179.539 93.5513 178.342C81.5596 177.144 80.0728 175.653 72.9775 176.397C65.8778 177.14 66.0469 171.91 69.2785 168.433C72.5013 164.957 85.5701 165.286 86.9545 160.488Z" fill="#EAEAEA"/>
<path d="M569.377 132.44C569.377 132.44 565.678 124.78 556.313 125.737C546.947 126.698 548.065 134.376 543.605 133.66C539.144 132.939 532.904 133.66 531.564 138.458C530.224 143.257 524.206 140.617 523.983 144.699C523.761 148.781 530.896 151.661 539.144 148.06C547.393 144.459 551.407 150.855 562.999 149.698C574.59 148.54 576.027 147.098 582.891 147.819C589.755 148.54 589.59 143.479 586.47 140.119C583.35 136.758 570.713 137.083 569.377 132.44Z" fill="#EAEAEA"/>
<path d="M68.5 3L312 87.5L309.499 99L55 103L68.5 3Z" fill="url(#paint0_linear_851_2012)"/>
<circle cx="51.5" cy="51.5" r="48" fill="#F8F9FD" stroke="#00A3FE" stroke-width="7"/>
<path d="M88 69.7549C88 71.8486 72.5574 73.5493 53.5 73.5493C34.4425 73.5493 19 71.8486 19 69.7549C19 67.6611 34.4425 65.9604 53.5 65.9604C72.5489 65.9604 88 67.6611 88 69.7549Z" fill="#456BA3"/>
<path d="M79.8045 44.2026H24.478V68.3962H79.8045V44.2026Z" fill="#EF7D00"/>
<path d="M79.8045 44.2026H24.478V49.2277H79.8045V44.2026Z" fill="#EF7D00"/>
<path d="M84.6158 46.6211H19L24.8882 24H78.7276L84.6158 46.6211Z" fill="#213653"/>
<path d="M62.7382 39.8698L51.808 32.375L40.8777 39.8698V70.6352H62.7382V39.8698Z" fill="#FB6504"/>
<path d="M56.2175 57.355H48.1843V69.7466H56.2175V57.355Z" fill="white"/>
<path d="M55.3543 58.1328H49.0559V69.7382H55.3543V58.1328Z" fill="#2F4B74"/>
<path d="M50.9533 64.4996C50.9533 64.8072 50.7054 65.0636 50.3892 65.0636C50.0816 65.0636 49.8252 64.8158 49.8252 64.4996C49.8252 64.1919 50.073 63.9355 50.3892 63.9355C50.7054 63.9355 50.9533 64.1919 50.9533 64.4996Z" fill="white"/>
<path d="M56.6876 38.9043H47.6033V47.9886H56.6876V38.9043Z" fill="white"/>
<path d="M56.0039 39.5879H48.2869V47.3049H56.0039V39.5879Z" fill="#70B6E0"/>
<path d="M52.8761 38.9043H51.5173V47.9886H52.8761V38.9043Z" fill="white"/>
<path d="M38.536 53.3213H27.7852V60.8503H38.536V53.3213Z" fill="white"/>
<path d="M37.7325 53.894H28.5969V60.2864H37.7325V53.894Z" fill="#70B6E0"/>
<path d="M33.7758 53.3213H32.6904V60.8503H33.7758V53.3213Z" fill="white"/>
<path d="M76.7706 53.3213H66.0198V60.8503H76.7706V53.3213Z" fill="white"/>
<path d="M75.9586 53.894H66.823V60.2864H75.9586V53.894Z" fill="#70B6E0"/>
<path d="M72.0021 53.3213H70.9167V60.8503H72.0021V53.3213Z" fill="white"/>
<path d="M57.901 69.2339H46.4324V70.6354H57.901V69.2339Z" fill="white"/>
<path d="M62.7382 42.7071V39.8698L51.808 32.375L40.8777 39.8698V43.348L52.2609 35.4003L62.7382 42.7071Z" fill="#EF7D00"/>
<path d="M37.801 41.0576L52.1924 31.187L66.5838 41.0576" stroke="#2F4B74" stroke-width="3.7269" stroke-miterlimit="10"/>
<path d="M39.0743 63.6362C38.083 63.6362 37.2711 64.3883 37.2711 65.3198C37.2711 65.3796 37.2797 65.448 37.2797 65.5078C37.1344 65.4651 36.972 65.4394 36.8096 65.4394C35.9209 65.4394 35.203 66.1146 35.203 66.9435C35.203 67.405 35.4252 67.8066 35.767 68.0887C35.7157 68.0801 35.673 68.0801 35.6217 68.0801C34.8697 68.0801 34.2629 68.6527 34.2629 69.3535C34.2629 70.0542 34.8697 70.6268 35.6217 70.6268H40.869V65.3112C40.8775 64.3883 40.0742 63.6362 39.0743 63.6362Z" fill="#31985B"/>
<path d="M64.5413 63.6362C65.5326 63.6362 66.3445 64.3883 66.3445 65.3198C66.3445 65.3796 66.336 65.448 66.336 65.5078C66.4812 65.4651 66.6436 65.4394 66.806 65.4394C67.6948 65.4394 68.4126 66.1146 68.4126 66.9435C68.4126 67.405 68.1904 67.8066 67.8486 68.0887C67.8999 68.0801 67.9426 68.0801 67.9939 68.0801C68.7459 68.0801 69.3527 68.6527 69.3527 69.3535C69.3527 70.0542 68.7459 70.6268 67.9939 70.6268H62.7466V65.3112C62.7381 64.3883 63.5414 63.6362 64.5413 63.6362Z" fill="#31985B"/>
<defs>
<linearGradient id="paint0_linear_851_2012" x1="86.8812" y1="56.0002" x2="308.103" y2="109.649" gradientUnits="userSpaceOnUse">
<stop stop-color="#00A3FE"/>
<stop offset="1" stop-color="#386EE1" stop-opacity="0.32"/>
</linearGradient>
</defs>
</svg>
